<svg clip-rule="evenodd" fill-rule="evenodd" height="512" image-rendering="optimizeQuality" shape-rendering="geometricPrecision" text-rendering="geometricPrecision" viewBox="0 0 512 512" width="512" xmlns="http://www.w3.org/2000/svg"><g id="Layer_x0020_1"><path d="m3 187s-1-1-1-1h179v-1h1l10-24 64-159v1-1l64 159 10 24h180s-1 1-1 2c-16 17-151 115-151 115l59 185h-5l-7-3c-29-16-143-84-143-84l-162 87h-5l59-185s-136-98-151-115zm394 272-87-173 121-72-138 8-38-119-38 119-138-8 121 72-80 168 142-104 134 109z" fill="#e31e24"/></g></svg>