<svg id="Layer_1" style="fill:#b91c1c" enable-background="new 0 0 512 512" viewBox="0 0 512 512" xmlns="http://www.w3.org/2000/svg">
  <path d="m120.532 287.034c-8.755-8.754-21.292-11.471-32.4-8.155v-77.519c0-17.957-14.609-32.566-32.566-32.566s-32.566 14.609-32.566 32.566v115.898c0 8.672 3.395 16.843 9.56 23.007l65.309 65.309v56.377c0 4.418 3.582 8 8 8h97.203c4.418 0 8-3.582 8-8v-81.061c0-2.122-.843-4.156-2.343-5.657zm74.54 166.917h-81.203v-51.69c0-2.122-.843-4.156-2.343-5.657l-67.652-67.652c-3.144-3.142-4.874-7.295-4.874-11.693v-115.899c0-9.135 7.432-16.566 16.566-16.566s16.566 7.432 16.566 16.566v88.289c-10.295 12.777-9.517 31.582 2.343 43.442l39.883 39.884c1.562 1.562 3.609 2.343 5.657 2.343 2.047 0 4.095-.781 5.657-2.343 3.124-3.125 3.125-8.189 0-11.314l-39.883-39.884c-6.458-6.458-6.458-16.966-.002-23.426 0 0 .001-.001.002-.001 6.459-6.459 16.97-6.459 23.43 0l85.853 85.854zm261.362-285.157c-17.957 0-32.566 14.609-32.566 32.566v77.519c-11.105-3.315-23.646-.599-32.399 8.155l-88.197 88.198c-1.5 1.501-2.343 3.535-2.343 5.657v81.062c0 4.418 3.582 8 8 8h97.203c4.418 0 8-3.582 8-8v-56.377l65.309-65.309c6.165-6.164 9.56-14.335 9.56-23.007v-115.898c-.001-17.957-14.61-32.566-32.567-32.566zm16.566 148.465c0 4.398-1.73 8.551-4.873 11.692l-67.652 67.652c-1.5 1.501-2.343 3.535-2.343 5.657v51.69h-81.203v-69.748l85.854-85.854c6.458-6.459 16.97-6.459 23.429 0 0 0 .001.001.002.001 6.457 6.46 6.457 16.968-.002 23.426l-39.883 39.884c-3.125 3.125-3.124 8.189 0 11.314 1.562 1.562 3.609 2.343 5.657 2.343s4.095-.781 5.657-2.343l39.883-39.884c11.86-11.86 12.638-30.665 2.343-43.442v-88.287c0-9.135 7.432-16.566 16.566-16.566s16.565 7.432 16.565 16.566zm-93.417-151.627c0-68.144-55.439-123.583-123.583-123.583s-123.583 55.439-123.583 123.583 55.439 123.583 123.583 123.583 123.583-55.44 123.583-123.583zm-123.583 107.583c-59.321 0-107.583-48.262-107.583-107.583s48.262-107.583 107.583-107.583 107.583 48.262 107.583 107.583-48.261 107.583-107.583 107.583zm45.413-86.208c0 16.197-13.178 29.375-29.375 29.375h-8.038v9.973c0 4.418-3.582 8-8 8s-8-3.582-8-8v-9.973h-6.96c-11.218 0-21.619-6.563-26.497-16.722-1.913-3.982-.234-8.762 3.748-10.675 3.983-1.91 8.762-.233 10.675 3.749 2.231 4.646 6.971 7.647 12.074 7.647h30.999c7.375 0 13.375-6 13.375-13.375s-6-13.375-13.375-13.375h-32.076c-16.197 0-29.375-13.178-29.375-29.375s13.177-29.375 29.375-29.375h8.037v-9.973c0-4.418 3.582-8 8-8s8 3.582 8 8v9.973h6.96c11.219 0 21.619 6.563 26.497 16.722 1.912 3.983.234 8.762-3.749 10.675-3.984 1.912-8.763.233-10.674-3.749-2.231-4.646-6.97-7.647-12.074-7.647h-30.998c-7.375 0-13.375 6-13.375 13.375s6 13.375 13.375 13.375h32.076c16.197 0 29.375 13.178 29.375 29.375z" />
</svg>