<svg style="fill:#fff" id="Layer_1" enable-background="new 0 0 100 100" viewBox="0 0 100 100" xmlns="http://www.w3.org/2000/svg">
  <path d="m96.9940109 54.3516159c-2.4599609 15.526062-19.3183212 25.2527084-31.5245132 27.4013672-1.1843338.207077-2.312294-.5851517-2.5193748-1.7694778-.0331917-.189827-.0410309-.3832169-.0233078-.5751114l.4353905-5.1506805c.0663109-.9594498.767601-1.7553253 1.7110901-1.9418411 13.1596985-2.2313843 20.9902115-21.9546089 12.9333038-19.5926132-8.3703995 2.4490775-20.4133225-1.0209962-22.4553109-12.4521943-2.0419846-11.4311962 6.7376709-22.0525856 21.4430199-22.0525856s22.6534042 19.3945121 19.9997024 36.1331367zm-72.7647876-36.1374893c-14.6988144 0-23.476305 10.6148415-21.4364967 22.0482216s14.0870914 14.9012756 22.457489 12.452198c8.0547428-2.3576431.2176971 17.365593-12.9333019 19.5926132-.9442759.1851425-1.6462479.9817734-1.7110882 1.9418411l-.4353914 5.1506882c-.1105442 1.1972046.7703714 2.2573471 1.967577 2.3678894.1918907.0177231.3852825.0098801.5751095-.0233078 12.2040205-2.1464844 29.0623817-11.8752975 31.5245171-27.4013672 2.6515236-16.7299118-5.3096046-36.124424-20.0084171-36.124424z" />
</svg>