<svg style="fill:#fff" id="Layer_1" enable-background="new 0 0 500 500" viewBox="0 0 500 500" xmlns="http://www.w3.org/2000/svg">
  <g>
    <path d="m167.127 203.258h168.175c9.498 0 17.23-7.789 17.23-17.36 0-9.576-7.732-17.364-17.23-17.364h-168.175c-9.498 0-17.23 7.788-17.23 17.364 0 9.571 7.732 17.36 17.23 17.36zm0-26.533h168.175c4.985 0 9.041 4.117 9.041 9.173 0 5.141-3.972 9.169-9.041 9.169h-168.175c-5.067 0-9.04-4.028-9.04-9.169.001-5.056 4.057-9.173 9.04-9.173z" />
    <path d="m365.467 379.668h-228.504c-9.341 0-17.231 7.951-17.231 17.365 0 9.576 7.732 17.364 17.231 17.364h228.505c9.498 0 17.23-7.788 17.23-17.364 0-9.414-7.889-17.365-17.231-17.365zm0 26.539h-228.504c-4.984 0-9.04-4.118-9.04-9.174 0-4.972 4.14-9.174 9.04-9.174h228.505c4.9 0 9.04 4.202 9.04 9.174-.001 5.056-4.057 9.174-9.041 9.174z" />
    <path d="m365.467 327.742h-228.504c-9.498 0-17.231 7.789-17.231 17.365 0 9.414 7.89 17.365 17.231 17.365h228.505c9.342 0 17.23-7.951 17.23-17.365 0-9.576-7.733-17.365-17.231-17.365zm0 26.539h-228.504c-4.9 0-9.04-4.202-9.04-9.174 0-5.056 4.056-9.174 9.04-9.174h228.505c4.984 0 9.04 4.118 9.04 9.174-.001 4.972-4.141 9.174-9.041 9.174z" />
    <path d="m365.467 275.823h-228.504c-9.498 0-17.231 7.715-17.231 17.196 0 9.576 7.732 17.365 17.231 17.365h228.505c9.498 0 17.23-7.789 17.23-17.365 0-9.482-7.733-17.196-17.231-17.196zm0 26.37h-228.504c-4.984 0-9.04-4.118-9.04-9.174 0-4.883 4.14-9.006 9.04-9.006h228.505c4.9 0 9.04 4.123 9.04 9.006-.001 5.056-4.057 9.174-9.041 9.174z" />
    <path d="m365.467 223.735h-228.504c-9.341 0-17.231 7.95-17.231 17.358 0 9.577 7.732 17.365 17.231 17.365h228.505c9.498 0 17.23-7.788 17.23-17.365 0-9.409-7.889-17.358-17.231-17.358zm0 26.532h-228.504c-4.984 0-9.04-4.117-9.04-9.174 0-4.972 4.14-9.168 9.04-9.168h228.505c4.9 0 9.04 4.196 9.04 9.168-.001 5.057-4.057 9.174-9.041 9.174z" />
    <path d="m419.324 243.727-.138-18.06c-.01-1.436-.776-2.76-2.01-3.492-40.714-24.036-44.82-75.001-12.549-155.806.748-1.888.011-4.04-1.749-5.062-4.59-2.668-8.616-4.871-12.413-6.858 3.049-10.899-2.884-22.462-13.634-26.078-.027-.005-.055-.016-.078-.022l-7.247-2.28c-5.33-1.766-11.023-1.33-16.023 1.207-5.012 2.544-8.737 6.906-10.508 12.278-5.105-.689-10.683-1.282-17.294-1.725-1.977-.094-4.056 1.408-4.336 3.554-7.492 57.463-41.215 83.169-71.33 83.169-.011 0-.023 0-.033 0-30.087-.018-63.765-25.74-71.174-83.164-.279-2.145-2.307-3.66-4.336-3.559-6.607.443-12.185 1.033-17.288 1.724-1.777-5.373-5.529-9.738-10.597-12.288-5.028-2.531-10.705-2.95-15.884-1.212l-7.297 2.296c-.017.006-.038.011-.056.017-10.778 3.561-16.722 15.126-13.661 26.082-3.797 1.992-7.82 4.195-12.407 6.86-1.76 1.023-2.498 3.174-1.749 5.062 32.26 80.805 28.159 131.77-12.548 155.806-1.235.732-2 2.056-2.011 3.492l-.138 18.07c-4.844 1.734-8.461 6.282-8.461 11.608v167.405c0 4.73 2.841 8.818 6.787 10.969l-.139 15.692c-.01 1.089.419 2.14 1.184 2.915.771.777 1.816 1.213 2.912 1.213h4.665v10.65c0 5.961 4.749 10.81 10.581 10.81h303.428c5.738 0 10.581-4.949 10.581-10.81v-10.65h4.661c1.094 0 2.14-.436 2.91-1.213.765-.775 1.196-1.826 1.184-2.915l-.139-15.74c3.856-2.164 6.632-6.222 6.632-10.922v-167.404c.002-5.41-3.495-9.907-8.298-11.619zm.109 179.024c0 2.352-1.95 4.418-4.179 4.418h-5.676c-2.224 0-4.174-2.066-4.174-4.418v-167.405c0-2.308 1.911-4.257 4.174-4.257h5.676c2.262 0 4.179 1.949 4.179 4.257zm-62.24-388.173c1.798-.91 3.749-1.374 5.726-1.374 1.358 0 2.733.217 4.073.659l7.258 2.285c6.66 2.262 10.431 9.867 8.241 16.627l-.782 2.409c-.006.019-.023.031-.029.05l-17.839 55.032c-1.073 3.313-3.38 6.005-6.498 7.587-3.1 1.576-6.609 1.849-9.839.783l-7.185-2.476c-1.693-.56-3.194-1.441-4.459-2.555-2.529-2.229-4.114-5.389-4.397-8.769-.141-1.688.044-3.432.597-5.141l17.678-54.379c.018-.056.001-.115.017-.171l.956-2.946c1.085-3.341 3.386-6.05 6.482-7.621zm-231.293 1.571 7.336-2.307c3.185-1.067 6.61-.799 9.666.737 3.14 1.582 5.464 4.286 6.548 7.622l.955 2.946c.016.056-.001.115.017.171l17.678 54.373c2.212 6.845-1.492 14.237-8.308 16.488l-7.085 2.441c-3.279 1.079-6.787.799-9.888-.765-3.117-1.582-5.431-4.275-6.503-7.587l-17.839-55.032c-.006-.018-.022-.03-.028-.047l-.783-2.412c-2.242-6.919 1.452-14.371 8.234-16.628zm-45.333 219.197c0-2.268 2.028-4.257 4.341-4.257h5.677c2.262 0 4.173 1.949 4.173 4.257v167.405c0 2.352-1.95 4.418-4.173 4.418l-5.85-.038c-2.202-.107-4.168-2.129-4.168-4.38zm323.618 208.844c0 1.368-1.139 2.62-2.39 2.62h-303.428c-1.252 0-2.39-1.252-2.39-2.62v-10.65h308.208zm4.096-18.84h-316.4-4.632l.089-9.99h3.246c6.704 0 12.364-5.777 12.364-12.609v-167.405c0-6.862-5.548-12.448-12.364-12.448h-1.548l.112-14.885c61.652-38.668 28.744-127.513 15.308-161.387 2.734-1.557 5.296-2.974 7.711-4.258l16.358 50.423c1.749 5.403 5.508 9.794 10.587 12.365 1.402.712 2.859 1.222 4.343 1.605.479.124.967.167 1.452.256 1.014.187 2.027.33 3.056.364.234.007.463.083.697.083.241 0 .479-.109.721-.117 1.993-.069 3.989-.323 5.945-.967l7.084-2.442c4.136-1.368 7.572-3.911 10.059-7.143 2.489-3.231 4.031-7.151 4.38-11.272.234-2.746-.063-5.583-.964-8.364l-.805-2.48-15.331-47.26c3.485-.435 7.288-.813 11.477-1.142 9.063 59.659 45.78 86.443 78.749 86.465h.039c32.997 0 69.76-26.767 78.911-86.465 4.19.323 7.993.707 11.484 1.142l-16.137 49.745c-3.604 11.113 2.442 23.125 13.425 26.757l7.186 2.475c1.934.64 3.92.889 5.907.955.234.007.463.113.697.113.232 0 .458-.075.689-.082 1.032-.035 2.048-.177 3.065-.364.491-.09.982-.136 1.468-.261 1.481-.383 2.939-.891 4.338-1.601 5.079-2.576 8.839-6.967 10.582-12.365l16.359-50.427c2.415 1.289 4.976 2.7 7.716 4.262-13.443 33.879-46.356 122.714 15.309 161.387l.111 14.885h-1.547c-6.816 0-12.365 5.586-12.365 12.448v167.405c0 6.833 5.66 12.609 12.365 12.609h3.24l.089 9.99z" />
  </g>
</svg>