<?xml version="1.0" encoding="iso-8859-1"?>
<!-- Generator: Adobe Illustrator 19.0.0, SVG Export Plug-In . SVG Version: 6.00 Build 0)  -->
<svg version="1.1" id="Capa_1" xmlns="http://www.w3.org/2000/svg" xmlns:xlink="http://www.w3.org/1999/xlink" x="0px" y="0px" viewBox="0 0 497.448 497.448" style="fill:#b91c1c" xml:space="preserve">
  <g>
    <g>
      <g>
        <path d="M160,145.596c-9.656,7.312-16,18.784-16,31.792c0,20.528,15.6,37.296,35.536,39.552				c4.08,14.04,11.616,26.912,22.24,37.536l31.2,31.192c7.552,7.552,17.6,11.72,28.28,11.72h37.496				c10.68,0,20.728-4.168,28.28-11.72l31.2-31.192c10.624-10.624,18.16-23.504,22.24-37.536C400.4,214.684,416,197.916,416,177.388				c0-13.016-6.344-24.488-16-31.792v-27.672l48.616-29.168l-13.032-6.52c-0.304-0.152-30.176-15.392-52.72-52.96l-2.336-3.888H376				c-0.536,0-54.216-0.264-91.88-22.856L280,0.06l-4.12,2.472C238.32,25.068,184.536,25.388,184,25.388h-4.528l-2.328,3.88				c-22.392,37.32-52.432,52.816-52.72,52.96l-13.032,6.52L160,117.916V145.596z M160,177.388c0-10.416,6.712-19.216,16-22.528				v37.392c0,2.616,0.152,5.208,0.376,7.784C166.896,196.828,160,187.94,160,177.388z M368,192.252				c0,19.232-7.488,37.312-21.088,50.912l-31.2,31.192c-4.464,4.472-10.648,7.032-16.968,7.032h-37.496				c-6.32,0-12.496-2.56-16.968-7.032l-31.2-31.192c-13.6-13.6-21.088-31.68-21.088-50.912v-44.944				c19.64-4.464,51.128-9.92,88.008-9.92c36.816,0,68.344,5.464,88,9.928V192.252z M269.264,99.076				C261.08,94.988,256,86.764,256,77.612V63.636l24-6l24,6v13.976c0,9.152-5.08,17.376-13.264,21.464L280,104.444L269.264,99.076z				 M383.624,200.028c0.224-2.568,0.376-5.16,0.376-7.776V154.86c9.288,3.312,16,12.112,16,22.528				C400,187.94,393.104,196.828,383.624,200.028z M143.328,89.268c11.56-8.152,29.664-23.488,45.2-47.984				c13.952-0.52,56.92-3.68,91.472-22.672c34.552,19,77.52,22.152,91.472,22.672c15.536,24.496,33.64,39.832,45.2,47.968				l-25.728,15.432c-7.616-2.264-26.968-7.528-53.84-11.272l-2.208,15.84c23.136,3.224,40.696,7.696,49.104,10.08v15.376				c-17.544-4.704-55.384-13.088-102.152-13.312l16.04-8.008C311.528,106.572,320,92.86,320,77.612V51.14l-40-10l-40,10v26.472				c0,15.248,8.472,28.96,22.112,35.776l16.04,8.024c-46.768,0.216-84.608,8.608-102.152,13.312v-15.376				c8.408-2.376,25.976-6.848,49.104-10.08l-2.208-15.84c-26.872,3.744-46.232,9.008-53.84,11.272L143.328,89.268z" />
        <rect x="192" y="417.388" width="40" height="16" />
        <path d="M72,377.388h32c4.416,0,8,3.584,8,8h16c0-13.232-10.768-24-24-24h-8v-8H80v8h-8c-13.232,0-24,10.768-24,24v8				c0,13.232,10.768,24,24,24h32c4.416,0,8,3.584,8,8v8c0,4.416-3.592,8-8,8H72c-4.416,0-8-3.584-8-8H48c0,13.232,10.768,24,24,24h8				v8h16v-8h8c13.232,0,24-10.768,24-24v-8c0-13.232-10.768-24-24-24H72c-4.416,0-8-3.584-8-8v-8				C64,380.972,67.592,377.388,72,377.388z" />
        <path d="M88,321.388c-48.52,0-88,39.48-88,88c0,48.52,39.48,88,88,88s88-39.48,88-88C176,360.868,136.52,321.388,88,321.388z				 M88,481.388c-39.696,0-72-32.296-72-72c0-39.704,32.304-72,72-72s72,32.296,72,72C160,449.092,127.696,481.388,88,481.388z" />
        <path d="M479.808,391.58c-5.368-32.232-27.968-58.68-58.976-69.016L352,299.62v-10.232h-16v15.016l-11.944,47.76l-32.312-38.776				h-23.496l-32.312,38.776L224,304.404v-15.016h-16v10.232l-59.28,19.76l5.064,15.168l56.552-18.848l17.728,70.904l18.04-21.656				l9.544,14.32l-14.584,102.12h-86.632v16h343.016L479.808,391.58z M474.064,454.444l-8.256-1.648				c-6.48-1.296-11.552-6.536-12.64-13.056l-4.064-24.384l17.712-4.432L474.064,454.444z M302.776,481.388h-45.552L272.352,375.5				l-15.568-23.36l18.96-22.752h8.504l18.96,22.752l-15.568,23.352L302.776,481.388z M423.24,481.388l-7.28-72.8l-15.92,1.592				l0.72,7.2H328v16h74.36l4.8,48h-88.224l-14.584-102.112l9.544-14.32l18.04,21.656l17.728-70.904l66.104,22.032				c25.368,8.464,43.856,30.104,48.256,56.472l0.152,0.896l-33.28,8.32l6.496,38.944c2.168,13.032,12.336,23.528,25.288,26.12				l14.208,2.84l1.664,10.064H423.24z" />
      </g>
    </g>
  </g>
</svg>