<?xml version="1.0" encoding="iso-8859-1"?>
<!-- Generator: Adobe Illustrator 19.0.0, SVG Export Plug-In . SVG Version: 6.00 Build 0)  -->
<svg version="1.1" id="Capa_1" xmlns="http://www.w3.org/2000/svg" xmlns:xlink="http://www.w3.org/1999/xlink" x="0px" y="0px" viewBox="0 0 512 512" style="fill:#b91c1c" xml:space="preserve">
  <g>
    <g>
      <path d="M296,126c-5.52,0-10,4.48-10,10s4.48,10,10,10c5.52,0,10-4.48,10-10S301.52,126,296,126z" />
    </g>
  </g>
  <g>
    <g>
      <path d="M502,66H10C4.477,66,0,70.478,0,76v60c0,26.223,20.295,47.779,46,49.826V236c0,77.538,42.087,145.508,104.991,181.896			c0.078,0.045,0.157,0.089,0.236,0.134c0.003,0.002,0.006,0.004,0.009,0.005C182.95,436.329,219.169,446,256,446			c38.117,0,74.499-10.384,105.009-28.104l-0.001,0.001c31.345-18.132,57.634-44.206,76.025-75.404			C455.983,310.344,466,273.52,466,236v-50.174c25.705-2.046,46-23.603,46-49.826V76C512,70.478,507.523,66,502,66z M346,403.364			C318.484,418.185,287.495,426,256,426c-31.494,0-62.483-7.815-90-22.636V316c0-49.626,40.374-90,90-90c49.626,0,90,40.374,90,90			V403.364z M446,236c0,61.64-30.26,119.483-80,154.912V316c0-60.654-49.346-110-110-110s-110,49.346-110,110v74.912			C96.26,355.483,66,297.64,66,236v-50h380V236z M492,126H336c-5.523,0-10,4.478-10,10c0,5.522,4.477,9.9,10,9.9h154.28			C486.152,157.539,475.036,166,462,166c-36.564,0-361.4,0-412,0c-16.542,0-30-13.458-30-30V86h472V126z" />
    </g>
  </g>
  <g>
    <g>
      <path d="M256,246c-38.598,0-70,31.402-70,70c0,38.598,31.402,70,70,70c38.598,0,70-31.402,70-70C326,277.402,294.598,246,256,246z			 M256,366c-27.57,0-50-22.43-50-50s22.43-50,50-50s50,22.43,50,50S283.57,366,256,366z" />
    </g>
  </g>
  <g>
    <g>
      <path d="M256,286c-16.542,0-30,13.458-30,30s13.458,30,30,30s30-13.458,30-30S272.542,286,256,286z M256,326			c-5.514,0-10-4.486-10-10c0-5.514,4.486-10,10-10c5.514,0,10,4.486,10,10C266,321.514,261.514,326,256,326z" />
    </g>
  </g>
</svg>