<?xml version="1.0" encoding="UTF-8"?>
<svg style="fill:#fff" xmlns="http://www.w3.org/2000/svg" id="OBJECT" viewBox="0 0 512 512" width="512" height="512">
  <path d="M277.5,292h187a7.5,7.5,0,0,0,7.5-7.5v-30a7.5,7.5,0,0,0-7.5-7.5h-187a7.5,7.5,0,0,0-7.5,7.5v30A7.5,7.5,0,0,0,277.5,292Zm7.5-30H457v15H285Z" />
  <path d="M464.5,307h-97a7.5,7.5,0,0,0-7.5,7.5v30a7.5,7.5,0,0,0,7.5,7.5h97a7.5,7.5,0,0,0,7.5-7.5v-30A7.5,7.5,0,0,0,464.5,307ZM457,337H375V322h82Z" />
  <path d="M277.5,352h60a7.5,7.5,0,0,0,7.5-7.5v-30a7.5,7.5,0,0,0-7.5-7.5h-60a7.5,7.5,0,0,0-7.5,7.5v30A7.5,7.5,0,0,0,277.5,352Zm7.5-30h45v15H285Z" />
  <path d="M67.5,352h150A27.54,27.54,0,0,0,245,324.5v-150A27.54,27.54,0,0,0,217.5,147H67.5A27.54,27.54,0,0,0,40,174.5v150A27.54,27.54,0,0,0,67.5,352ZM55,174.5A12.52,12.52,0,0,1,67.5,162h150A12.52,12.52,0,0,1,230,174.5v150A12.52,12.52,0,0,1,217.5,337H67.5A12.52,12.52,0,0,1,55,324.5Z" />
  <path d="M484.5,107H464.78c.09-2.08.15-4.16.15-6.25V41.41a7.51,7.51,0,0,0-4.76-7L373.74.52a7.51,7.51,0,0,0-5.48,0l-86.43,33.9a7.51,7.51,0,0,0-4.76,7v59.34c0,2.09.06,4.17.15,6.25H27.5A27.54,27.54,0,0,0,0,134.5v270A27.54,27.54,0,0,0,27.5,432h171v35H141a22.5,22.5,0,0,0,0,45H371a22.5,22.5,0,0,0,0-45H313.5V432h171A27.54,27.54,0,0,0,512,404.5v-270A27.54,27.54,0,0,0,484.5,107ZM292.07,46.52l78.93-31,78.93,31v54.23A127.88,127.88,0,0,1,371,219.41a127.88,127.88,0,0,1-78.93-118.66ZM27.5,122H278.64a143.72,143.72,0,0,0,89.62,112.48,7.48,7.48,0,0,0,5.48,0A143.72,143.72,0,0,0,463.36,122H484.5A12.52,12.52,0,0,1,497,134.5V377H15V134.5A12.52,12.52,0,0,1,27.5,122Zm351,367.5A7.5,7.5,0,0,1,371,497H141a7.5,7.5,0,0,1,0-15H371A7.5,7.5,0,0,1,378.5,489.5Zm-80-22.5h-85V432h85Zm186-50H27.5A12.52,12.52,0,0,1,15,404.5V392H497v12.5A12.52,12.52,0,0,1,484.5,417Z" />
  <path d="M361.27,160a20.07,20.07,0,0,0,14.29-5.92l48.32-48.32a7.5,7.5,0,0,0,0-10.61l-18-18a7.49,7.49,0,0,0-10.6,0l-34.05,34L346.68,96.65a7.49,7.49,0,0,0-10.6,0l-18,17.95a7.5,7.5,0,0,0,0,10.61L347,154.08A20.06,20.06,0,0,0,361.27,160Zm-19.89-47.44L356,127.15a7.5,7.5,0,0,0,10.61,0l34-34,7.35,7.35-43,43a5.2,5.2,0,0,1-7.35,0L334,119.91Z" />
  <path d="M97.5,307h90a7.5,7.5,0,0,0,7.5-7.5v-70a7.49,7.49,0,0,0-3.34-6.24l-45-30a7.5,7.5,0,0,0-8.32,0l-45,30A7.49,7.49,0,0,0,90,229.5v70A7.5,7.5,0,0,0,97.5,307Zm7.5-73.49,37.5-25,37.5,25V292H105Z" />
</svg>