<svg id="Layer_1" style="fill:#b91c1c" viewBox="0 0 512 512" xmlns="http://www.w3.org/2000/svg" data-name="Layer 1">
  <path d="m494.052 301.924c-5.14-3.65-7.483-9.31-6.431-15.526 1.62-9.576-.673-17.312-7.011-23.648-6.34-6.34-14.078-8.633-23.649-7.01-6.213 1.058-11.872-1.29-15.524-6.431-5.624-7.918-12.716-11.767-21.68-11.767s-16.056 3.849-21.68 11.767c-3.651 5.139-9.305 7.479-15.525 6.431-9.578-1.624-17.314.673-23.649 7.011-6.34 6.34-8.633 14.075-7.009 23.648 1.053 6.216-1.292 11.875-6.432 15.525-6.023 4.278-9.685 9.409-11.096 15.564-1.753-.69-3.521-1.384-5.315-2.088-8.688-3.41-17.666-6.935-27.113-10.834l-27.551-21.846c-1.664-1.319-3.948-1.426-5.708-.352-1.475-7.352-2.592-16.702-3.333-27.922 3.431-3.563 6.756-7.148 9.822-10.535 10.508-11.609 17.564-29.722 22.285-47.843 3.37 2.599 7.137 4.595 10.954 4.595 1.033 0 2.07-.146 3.104-.466 8.696-2.689 10.634-14.804 12.878-28.832l.03-.189c.257-1.61.88-3.955 1.54-6.437 2.234-8.407 5.016-18.869.89-25.521-1.998-3.221-4.895-5.284-8.376-5.969-2.338-.46-4.89-.289-7.68.509 15.449-40.238 17.156-67.221 5.262-82.271-12.626-15.979-36.418-12.553-47.671-10.656-7.231-11.418-22.332-19.409-42.177-22.163-20.81-2.886-43.875.307-63.283 8.762-20.996 9.146-36.246 23.654-44.103 41.954-7.967 18.557-8.187 40.222-.698 64.54-3.004-.938-5.737-1.164-8.228-.675-3.482.685-6.378 2.748-8.376 5.969-4.126 6.652-1.345 17.114.89 25.521.66 2.481 1.283 4.826 1.541 6.436l.03.189c2.243 14.028 4.181 26.144 12.877 28.833 1.033.319 2.07.466 3.104.466 3.817 0 7.585-1.997 10.955-4.596 4.722 18.122 11.777 36.236 22.285 47.844 3.066 3.387 6.391 6.972 9.822 10.534-.741 11.223-1.858 20.572-3.333 27.923-1.761-1.073-4.043-.967-5.708.352l-27.55 21.846c-9.44 3.896-18.41 7.417-27.092 10.825-54.082 21.23-93.157 36.569-93.157 88.128v36.118c0 2.762 2.239 5 5 5h370.788l-2.181 44.488c-.097 1.982.987 3.835 2.764 4.72 1.775.886 3.908.638 5.433-.635l31.771-26.491 31.771 26.491c.918.766 2.056 1.16 3.203 1.16.759 0 1.522-.173 2.229-.525 1.776-.885 2.86-2.737 2.764-4.72l-4.797-97.874c.671.034 1.348.101 2.034.217 9.579 1.619 17.312-.673 23.649-7.011 6.34-6.339 8.633-14.075 7.01-23.649-1.053-6.216 1.291-11.874 6.431-15.524 7.918-5.624 11.767-12.716 11.767-21.68s-3.849-16.056-11.767-21.68zm-324.403 79.74c.823 1.284 2.188 2.123 3.705 2.277 1.521.151 3.023-.395 4.087-1.487l8.861-9.102 7.757 11.772-5.937 49.512h-35.165l-46.376-111.348c6.601-2.594 13.39-5.284 20.443-8.165l42.625 66.54zm25.589-100.582c3.201 1.259 5.782 1.648 8.061 1.648 1.894 0 3.581-.27 5.241-.535 1.688-.271 3.434-.55 5.644-.578 2.21.028 3.955.308 5.643.578 3.659.586 7.441 1.19 13.303-1.113 6.057-2.382 14.41-9.215 22.915-17.34.972 10.608 2.342 19.363 4.091 26.135l-45.951 40.97-45.95-40.97c1.749-6.775 3.117-15.535 4.089-26.137 8.507 8.127 16.861 14.962 22.916 17.343zm18.946 63.631 20.74 21.304-8.491 12.885h-24.499l-8.491-12.885zm-10.506 44.189h21.012l5.484 45.734h-31.98zm30.63-3.777 7.758-11.772 8.86 9.101c.946.973 2.24 1.513 3.583 1.513.167 0 .336-.009.505-.025 1.518-.154 2.882-.993 3.705-2.277l42.624-66.541c7.052 2.881 13.842 5.571 20.443 8.165l-46.376 111.348h-35.165zm37.161-91.957 21.263 16.86-39.034 60.937-32.286-33.164 50.058-44.633zm45.076-150.106c.519.102 1.138.351 1.806 1.428 1.851 2.983-.69 12.544-2.056 17.681-.727 2.733-1.413 5.315-1.751 7.426l-.03.19c-.936 5.851-1.819 11.378-3.113 15.535-1.512 4.86-2.831 5.319-2.844 5.323-.024.007-2.307.445-8.5-5.596 3.134-14.67 4.846-28.448 5.741-37.735 6.557-4.403 9.664-4.469 10.747-4.252zm-149.628-106.464c13.968-6.085 29.576-8.955 44.091-8.955 23.343 0 43.862 7.423 50.195 20.837.947 2.006 3.1 3.146 5.292 2.806.704-.11 1.514-.248 2.412-.4 9.706-1.652 29.903-5.091 39.302 6.803 6.461 8.176 10.191 26.802-5.515 69.194-2.175-6.651-5.425-13.448-9.802-18.985-1.268-1.603-3.381-2.272-5.337-1.695-1.958.577-3.368 2.287-3.563 4.319-.032.339-.295 2.352-2.125 5.406-3.794-11.64-10.845-22.85-21.428-24.958-2.367-.471-4.736.817-5.625 3.062-4.401 11.112-17.4 10.856-40.002 9.442-27.006-1.688-63.219-3.954-86.494 29.549-20.366-62.711 19.689-88.188 38.598-96.425zm-47.107 154.046c-.013-.004-1.332-.462-2.844-5.323-1.293-4.157-2.177-9.684-3.113-15.535l-.03-.188c-.337-2.111-1.024-4.693-1.75-7.427-1.365-5.137-3.907-14.697-2.056-17.681.667-1.074 1.262-1.321 1.807-1.428 1.077-.214 4.188-.152 10.748 4.253.895 9.287 2.606 23.064 5.74 37.733-6.197 6.043-8.481 5.601-8.501 5.596zm12.619-45.293c19.79-35.767 52.687-33.712 81.759-31.896 19.939 1.249 38.871 2.432 47.621-11.209 5.515 3.746 10.632 13.665 12.665 25.265.317 1.809 1.6 3.298 3.341 3.879 1.744.585 3.662.16 5.002-1.093 3.194-2.993 5.479-5.833 7.111-8.384 4.07 8.21 5.876 17.216 6.094 22.516-1.492 16.481-7.833 70.198-28.269 92.772-17.177 18.979-31.489 31.904-38.283 34.575-3.32 1.305-4.905 1.05-8.063.546-1.868-.3-4.193-.672-7.17-.704h-.107c-2.977.032-5.302.404-7.171.704-3.157.506-4.743.761-8.062-.546-6.79-2.669-21.102-15.595-38.284-34.575-20.069-22.17-26.544-74.374-28.183-91.85zm24.469 147.818 50.058 44.633-32.286 33.164-39.035-60.936zm-140.716 110.35c0-43.14 30.387-56.612 81.091-76.571l44.853 107.689h-125.944zm270.06 31.118 44.853-107.69c1 .393 1.974.78 2.96 1.17 1.113 6.874 4.869 12.522 11.407 17.167 5.14 3.65 7.483 9.309 6.431 15.525-1.62 9.577.673 17.313 7.011 23.649 6.338 6.34 14.07 8.635 23.649 7.009.686-.116 1.364-.184 2.035-.218l-2.127 43.388zm136.718 21.732c-1.855-1.547-4.549-1.547-6.404 0l-26.219 21.861 4.12-84.053c1.349 1.002 2.57 2.241 3.621 3.721 5.625 7.918 12.716 11.767 21.68 11.767s16.055-3.849 21.68-11.768c1.051-1.479 2.273-2.718 3.622-3.719l4.12 84.053zm65.302-119.238c-8.269 5.873-12.193 15.349-10.499 25.348 1.086 6.405-.177 10.863-4.221 14.908-4.043 4.044-8.503 5.307-14.91 4.222-9.993-1.689-19.475 2.23-25.347 10.499-3.764 5.298-7.809 7.558-13.527 7.558s-9.764-2.26-13.527-7.557c-4.972-7.001-12.524-10.888-20.795-10.888-1.497 0-3.02.127-4.553.387-6.404 1.085-10.864-.176-14.908-4.221-4.043-4.042-5.306-8.501-4.222-14.909 1.694-9.998-2.23-19.474-10.499-25.347-5.298-3.763-7.558-7.809-7.558-13.527s2.26-9.765 7.558-13.527c8.268-5.872 12.193-15.348 10.5-25.349-1.087-6.404.176-10.862 4.221-14.907 4.043-4.044 8.506-5.303 14.909-4.222 10.001 1.692 19.475-2.23 25.347-10.499 3.763-5.298 7.809-7.558 13.527-7.558s9.765 2.26 13.527 7.558c5.872 8.268 15.347 12.191 25.348 10.499 6.404-1.085 10.863.177 14.908 4.222 4.043 4.042 5.306 8.501 4.222 14.908-1.694 9.999 2.23 19.475 10.499 25.348 5.298 3.763 7.558 7.809 7.558 13.527s-2.26 9.765-7.558 13.527zm-68.504-44.902c-17.3 0-31.375 14.074-31.375 31.374s14.075 31.375 31.375 31.375 31.375-14.075 31.375-31.375-14.075-31.374-31.375-31.374zm0 52.749c-11.786 0-21.375-9.589-21.375-21.375s9.589-21.374 21.375-21.374 21.375 9.588 21.375 21.374-9.589 21.375-21.375 21.375z" />
</svg>