<?xml version="1.0" encoding="iso-8859-1"?>
<!-- Generator: Adobe Illustrator 19.0.0, SVG Export Plug-In . SVG Version: 6.00 Build 0)  -->
<svg version="1.1" id="Capa_1" xmlns="http://www.w3.org/2000/svg" xmlns:xlink="http://www.w3.org/1999/xlink" x="0px" y="0px" viewBox="0 0 512 512" style="fill:#fff" xml:space="preserve">
  <g>
    <g>
      <path d="M504.5,472.953h-8.532V271.517h0.516c4.142,0,7.5-3.358,7.5-7.5v-32.064c0-4.142-3.358-7.5-7.5-7.5h-0.516v-32.581			c0-4.142-3.358-7.5-7.5-7.5c-4.142,0-7.5,3.358-7.5,7.5v32.581h-41.113V175.84c0-4.142-3.358-7.5-7.5-7.5h-64.129			c-4.142,0-7.5,3.358-7.5,7.5v48.613h-17.064V175.84c0-4.142-3.358-7.5-7.5-7.5h-64.129c-4.142,0-7.5,3.358-7.5,7.5v48.613h-17.064			V175.84c0-4.142-3.358-7.5-7.5-7.5H175.84c-4.142,0-7.5,3.358-7.5,7.5v48.613h-17.064V175.84c0-4.142-3.358-7.5-7.5-7.5H79.645			c-4.142,0-7.5,3.358-7.5,7.5v48.613H31.032v-73.177h449.936v8.532c0,4.142,3.358,7.5,7.5,7.5c4.142,0,7.5-3.358,7.5-7.5v-8.532			h0.516c4.142,0,7.5-3.358,7.5-7.5v-64.13c0-4.142-3.358-7.5-7.5-7.5H320.129c-4.142,0-7.5,3.358-7.5,7.5			c0,4.142,3.358,7.5,7.5,7.5h168.855v49.129H294.997c5.366-6.754,8.584-15.288,8.584-24.565c0-15.259-8.479-25.988-15.292-34.608			c-4.567-5.778-8.511-10.769-9.576-15.99c-0.452-2.216-1.881-4.11-3.887-5.154c-2.007-1.044-4.378-1.126-6.452-0.224			c-0.769,0.334-18.886,8.437-23.939,30.234c-0.936,4.035,1.577,8.064,5.612,9c4.038,0.937,8.065-1.578,9-5.612			c1.662-7.167,5.41-12.098,8.783-15.255c2.439,4.394,5.596,8.387,8.69,12.303c6.202,7.847,12.06,15.259,12.06,25.307			c0,13.545-11.02,24.565-24.564,24.565c-22.385,0-40.597-18.212-40.597-40.597c0-34.896,43.52-57.204,43.951-57.421			c3.705-1.852,5.207-6.357,3.354-10.062c-1.852-3.705-6.357-5.208-10.062-3.354c-0.529,0.265-13.109,6.615-25.762,18.213			c-17.324,15.88-26.48,34.077-26.48,52.624c0,16.005,6.807,30.444,17.668,40.597H23.016v-49.13h160.839c4.142,0,7.5-3.358,7.5-7.5			c0-4.142-3.358-7.5-7.5-7.5H15.516c-4.142,0-7.5,3.358-7.5,7.5v64.129c0,4.142,3.358,7.5,7.5,7.5h0.516v73.177h-0.516			c-4.142,0-7.5,3.358-7.5,7.5v32.064c0,4.142,3.358,7.5,7.5,7.5h0.516v160.839c0,4.142,3.358,7.5,7.5,7.5			c4.142,0,7.5-3.358,7.5-7.5V271.517h449.936v201.436h-41.113V360.21c0-4.142-3.358-7.5-7.5-7.5H272.032			c-4.142,0-7.5,3.358-7.5,7.5v112.742h-17.064V360.21c0-4.142-3.358-7.5-7.5-7.5H79.645c-4.142,0-7.5,3.358-7.5,7.5v112.742H31.032			v-8.536c0-4.142-3.358-7.5-7.5-7.5c-4.142,0-7.5,3.358-7.5,7.5v8.536H7.5c-4.142,0-7.5,3.358-7.5,7.5c0,4.142,3.358,7.5,7.5,7.5			h497c4.142,0,7.5-3.358,7.5-7.5C512,476.31,508.642,472.953,504.5,472.953z M232.468,472.952H87.145V367.71h145.323V472.952z			 M424.855,472.952H279.532V367.71h145.323V472.952z M407.791,183.34h17.064v41.113h-17.064V183.34z M375.726,183.34h17.065v41.113			h-17.065V183.34z M311.597,183.34h17.064v41.113h-17.064V183.34z M279.532,183.34h17.064v41.113h-17.064V183.34z M215.404,183.34			h17.064v41.113h-17.064V183.34z M183.339,183.34h17.064v41.113h-17.064V183.34z M119.209,183.34h17.065v41.113h-17.065V183.34z			 M87.145,183.34h17.064v41.113H87.145V183.34z M488.984,256.517H23.016v-17.064h465.968V256.517z" />
    </g>
  </g>
  <g>
    <g>
      <path d="M400.291,384.775h-96.194c-4.142,0-7.5,3.358-7.5,7.5c0,4.142,3.358,7.5,7.5,7.5h96.194c4.142,0,7.5-3.358,7.5-7.5			C407.791,388.133,404.433,384.775,400.291,384.775z" />
    </g>
  </g>
  <g>
    <g>
      <path d="M239.968,288.582h-64.129c-4.142,0-7.5,3.358-7.5,7.5v32.064c0,4.142,3.358,7.5,7.5,7.5h64.129c4.142,0,7.5-3.358,7.5-7.5			v-32.064C247.468,291.94,244.11,288.582,239.968,288.582z M200.403,320.646h-17.064v-17.064h17.064V320.646z M232.468,320.646			h-17.064v-17.064h17.064V320.646z" />
    </g>
  </g>
  <g>
    <g>
      <path d="M143.774,288.582H79.645c-4.142,0-7.5,3.358-7.5,7.5v32.064c0,4.142,3.358,7.5,7.5,7.5h64.129c4.142,0,7.5-3.358,7.5-7.5			v-32.064C151.274,291.94,147.916,288.582,143.774,288.582z M104.209,320.646H87.145v-17.064h17.064V320.646z M136.274,320.646			h-17.065v-17.064h17.065V320.646z" />
    </g>
  </g>
  <g>
    <g>
      <path d="M432.355,288.582h-64.129c-4.142,0-7.5,3.358-7.5,7.5v32.064c0,4.142,3.358,7.5,7.5,7.5h64.129c4.142,0,7.5-3.358,7.5-7.5			v-32.064C439.855,291.94,436.497,288.582,432.355,288.582z M392.791,320.646h-17.065v-17.064h17.065V320.646z M424.855,320.646			h-17.064v-17.064h17.064V320.646z" />
    </g>
  </g>
  <g>
    <g>
      <path d="M336.161,288.582h-64.129c-4.142,0-7.5,3.358-7.5,7.5v32.064c0,4.142,3.358,7.5,7.5,7.5h64.129c4.142,0,7.5-3.358,7.5-7.5			v-32.064C343.661,291.94,340.303,288.582,336.161,288.582z M296.596,320.646h-17.064v-17.064h17.064V320.646z M328.661,320.646			h-17.064v-17.064h17.064V320.646z" />
    </g>
  </g>
  <g>
    <g>
      <path d="M207.903,384.775h-96.194c-4.142,0-7.5,3.358-7.5,7.5c0,4.142,3.358,7.5,7.5,7.5h96.194c4.142,0,7.5-3.358,7.5-7.5			C215.403,388.133,212.045,384.775,207.903,384.775z" />
    </g>
  </g>
</svg>