<svg clip-rule="evenodd" style="fill:#fff" fill-rule="evenodd" height="512" image-rendering="optimizeQuality" shape-rendering="geometricPrecision" text-rendering="geometricPrecision" viewBox="0 0 6.82666 6.82666" width="512" xmlns="http://www.w3.org/2000/svg">
  <g id="Layer_x0020_1">
    <g id="_428299088">
      <path id="_428301176" d="m4.80795 5.15509h-2.78924c-.0387402 0-.0701693-.0314213-.0701693-.0701575.00001181-.0387402.0314252-.0701575.0701575-.0701575h2.78925c.0387362 0 .0701575.0314252.0701575.0701575 0 .0387205-.0314252.0701575-.0701575.0701575z" />
      <path id="_428301080" d="m6.26908 3.41272h-1.54237c-.0753937 0-.136787-.061378-.136787-.136772l-.00024016-.749815c0-.0755118.0613858-.136898.136902-.136898l1.1481-.00000394c.0387362 0 .0701496.0314252.0701496.0701614.00000787.0388425-.0314213.0701575-.0701575.0701575l-1.14469-.00000394.00025197.742858h1.53883c.0387362 0 .0700354.0314331.0700354.0701693 0 .0387283-.0313071.0701535-.0700354.0701457z" />
      <path id="_428301296" d="m6.31305 5.15509h-.46515c-.0388622 0-.0701732-.0314213-.0701732-.0701575.00001575-.0387402.0313071-.0701575.0701575-.0701575h.465165c.0130276 0 .023626-.0105984.023626-.023626l.00000787-1.20889c0-.0758819-.0163307-.152606-.0473898-.221917l-.598043-1.33946-1.27513-.00012205v2.5068c0 .0387205-.031437.0701575-.0701693.0701575-.0387244 0-.0701575-.0314252-.0701575-.0701575l.00001181-2.5102c0-.0755236.061378-.136902.136772-.136902l1.28098.00011024c.0539646 0 .103043.0319213.124965.081252l.598906 1.34127c.0395866.0884252.0595551.182339.0595551.279173l.00000787 1.20887c0 .0903819-.0735787.163953-.163949.163953z" />
      <path id="_428301320" d="m1.49887 4.63524c-.248114 0-.449941.201831-.449941.449819 0 .248102.201823.449933.449933.449933.248118-.00000787.449933-.201823.449933-.449933 0-.247992-.201823-.449811-.449925-.449819zm0 1.04006c-.325453 0-.590256-.264787-.590256-.59024 0-.325343.264795-.590126.590248-.590126.325457-.00000787.590248.264795.590248.590126 0 .325449-.264795.590248-.59024.59024z" />
      <path id="_428300984" d="m1.49887 4.94181c-.0790551 0-.143244.0643189-.143244.143248.00001181.0790354.064185.143362.143236.143362.0790591-.00000394.143236-.064311.143236-.143362.00000394-.0789291-.064189-.143236-.143228-.143248zm0 .426921c-.15639 0-.283563-.12728-.283563-.283673.00001575-.15628.127161-.283551.283555-.283551.156394-.00001181.283551.12728.283551.283551.00000394.15639-.127157.283677-.283543.283673z" />
      <path id="_428301464" d="m5.32793 4.63524c-.248118 0-.449819.201831-.449819.449819 0 .248102.201697.449933.449811.449933.248118-.00000787.449933-.201823.449933-.449933 0-.247992-.201823-.449811-.449925-.449819zm0 1.04006c-.325453 0-.590138-.264787-.590138-.59024.00000394-.325343.264673-.590126.59013-.590126.325457-.00000787.590248.264795.590248.590126 0 .325449-.264795.590248-.59024.59024z" />
      <path id="_428300960" d="m5.32793 4.94181c-.0790512 0-.143248.0643189-.143248.143248.00001181.0790354.064189.143362.14324.143362.0790551-.00000394.143358-.064311.143358-.143362.00000394-.0789291-.064311-.143236-.14335-.143248zm0 .426921c-.15639 0-.283563-.12728-.283563-.283673.00001181-.15628.127161-.283551.283555-.283551.156394-.00001181.283551.12728.283551.283551.00000394.15639-.127161.283677-.283543.283673z" />
      <path id="_428300000" d="m4.8892 3.84231h-.229354c-.0387244 0-.0701575-.0314173-.0701575-.0701496s.0314252-.0701575.0701575-.0701575l.229354-.00000787c.0387362 0 .0701535.0314331.0701535.0701654.00000394.0387244-.0314252.0701575-.0701535.0701496z" />
      <path id="_428300672" d="m4.95058 4.79772h-3.0745c-.0387402 0-.0701693-.0314252-.0701693-.0701575.00001181-.0387362.0314252-.0701575.0701575-.0701575h3.07451c.0387402 0 .0701535.0314252.0701535.0701575.00000394.0387205-.0314252.0701575-.0701535.0701575z" />
      <path id="_428300720" d="m6.40684 4.79772h-.701697c-.0387362 0-.0701654-.0314252-.0701654-.0701575.00000787-.0387362.0314252-.0701575.0701575-.0701575h.701705c.0387244 0 .0701496.0314252.0701496.0701575.00000787.0387205-.0314252.0701575-.0701496.0701575z" />
      <path id="_428300600" d="m1.12152 4.79772h-.701701c-.0387244 0-.0701614-.0314252-.0701614-.0701575.00000394-.0387362.0314291-.0701575.0701575-.0701575h.701705c.0387362 0 .0701496.0314252.0701496.0701575.00000787.0387205-.0314213.0701575-.0701496.0701575z" />
      <path id="_428300048" d="m1.01848 2.39763c-.0387402 0-.0701614-.0314173-.0701614-.0701457l.00000394-.385878c0-.0387362.0314173-.0701457.0701535-.0701457.0387362-.00001181.0701575.0314213.0701575.0701575l.00000394.385854c0 .0387402-.0314291.0701693-.0701575.0701575z" />
      <path id="_428300336" d="m1.33321 2.39763c-.0387362 0-.0701614-.0314173-.0701614-.0701457l.00000394-.385878c0-.0387362.0314213-.0701457.0701535-.0701457.0387441-.00001181.0701575.0314213.0701575.0701575l.00000394.385854c0 .0387402-.0314291.0701693-.0701575.0701575z" />
      <path id="_428300528" d="m3.43258 2.39763c-.0387402 0-.0701654-.0314173-.0701654-.0701457l.00000787-.385878c0-.0387362.0314173-.0701457.0701496-.0701457.038748-.00001181.0701575.0314213.0701575.0701575l.00000787.385854c0 .0387402-.0314331.0701693-.0701575.0701575z" />
      <path id="_428300288" d="m3.74719 2.39763c-.0387402 0-.0701654-.0314173-.0701654-.0701457l.00000787-.385878c0-.0387362.0314173-.0701457.0701496-.0701457.0387441-.00001181.0701575.0314213.0701575.0701575l.00000787.385854c0 .0387402-.0314331.0701693-.0701575.0701575z" />
      <path id="_428300264" d="m.564043 1.72309c-.0408071 0-.0740669.0332598-.0740669.074189.00000394.0407992.0332559.0740551.0740591.0740551l3.63747-.00001181c.0409291 0 .0741772-.0332402.0741772-.0740433.00000787-.0198583-.00767717-.0384921-.021685-.052378-.0138819-.0140157-.0325197-.0218031-.0523701-.0218031l-3.63758-.00000787zm3.63746.288547h-3.63746c-.118264 0-.214382-.0962126-.214382-.214358.00000394-.118272.0961024-.214496.214374-.214496l3.63759-.00000787c.0573701 0 .111205.0224252.151764.0629803.0404409.0405551.0626063.0943976.0626063.151646.00000787.118016-.0962244.214248-.214492.214236z" />
      <path id="_428300240" d="m6.40684 4.49236h-.261142c-.103169 0-.186972-.0839094-.186972-.186953v-.0688228c0-.103043.0837992-.186965.186965-.186965l.26115-.00000394c.0387244 0 .0701496.0314291.0701496.0701614.00000787.0387323-.0314252.0701575-.0701575.0701575l-.261134-.00000394c-.0258307 0-.0466575.0209567-.0466575.0466535v.0688189c0 .025689.0208268.0466496.0466496.0466496l.26115-.00000787c.0387244 0 .0701496.0314331.0701496.0701654.00000787.0387283-.0314252.0701575-.0701496.0701496z" />
      <path id="_428300504" d="m5.29078 2.22089c-.0387362 0-.0701654-.0314134-.0701654-.0701457l.00000787-.148846c0-.0585827-.0476339-.106205-.10622-.106205-.0585827-.00000787-.106331.047626-.106331.106209l.00000787.148831c0 .0387362-.031437.0701693-.0701654.0701693-.0387283-.00001181-.0701575-.0314252-.0701575-.0701575l.00000787-.148846c0-.135933.110587-.24652.246638-.24652.135941-.00000787.246528.110594.246528.246524l.00000787.148831c0 .0387362-.0314331.0701693-.0701575.0701575z" />
      <path id="_428299904" d="m3.93452 4.79772c-.0387362 0-.0701614-.0314252-.0701614-.0701575l.00000394-1.74833c0-.00159055-.00122441-.0026811-.00268504-.0026811l-.677567-.00000394c-.0014685 0-.00256693.00110236-.00256693.00268504l.00000394 1.74833c0 .0387205-.0314331.0701575-.0701614.0701575-.0388583 0-.0701614-.0314252-.0701614-.0701575l.00000787-1.74833c0-.0789291.064063-.142996.142866-.142996l.677591-.00000394c.0788071 0 .142984.0640709.142984.143l.00000394 1.74833c0 .0387205-.0314291.0701575-.0701575.0701575z" />
      <path id="_428299688" d="m.901433 3.34427h.614122v-.36772h-.614122zm.649925.140315h-.685732c-.0576181 0-.104516-.0468898-.104516-.104504l.00000787-.439339c0-.0576181.0468819-.104504.104496-.104504l.685744-.00000394c.0576063 0 .1045.0468976.1045.104508l.00001181.439335c0 .0576024-.0469055.104508-.104512.104508z" />
      <path id="_428299664" d="m2.04149 3.34427h.614126v-.36772h-.614126zm.649929.140315h-.685736c-.0576142 0-.104512-.0468898-.104512-.104504l.00000394-.439339c0-.0576181.0468858-.104504.1045-.104504l.685744-.00000394c.0576063 0 .1045.0468976.1045.104508l.00001181.439335c0 .0576024-.0469055.104508-.104512.104508z" />
      <path id="_428299592" d="m3.69153 3.95243c-.0387362 0-.0701654-.0314213-.0701654-.0701535l.00000787-.130457c0-.0387362.0314134-.0701535.0701496-.0701535.0387323-.00000394.0701575.0314252.0701575.0701575l.00000787.130449c0 .0387362-.0314331.0701614-.0701575.0701575z" />
      <path id="_428299952" d="m5.05631 3.41272c-.0387402 0-.0701693-.0314173-.0701693-.0701457l.00001181-.883185c0-.0387362.0314094-.0701535.0701457-.0701535.0387362-.00000394.0701575.0314213.0701575.0701575l.00000787.883169c0 .0387402-.0314331.0701654-.0701535.0701575z" />
      <path id="_428299400" d="m1.08377 1.72309c-.0387402 0-.0701693-.0312913-.0701693-.0701496l.00001181-.431421c0-.0387402.0314134-.0701535.0701457-.0701535.0387323-.00000394.0701575.0314252.0701575.0701575l.00001181.431409c0 .0388583-.031437.0701654-.0701575.0701575z" />
      <path id="_428299880" d="m1.60348 1.72309c-.0388465 0-.0701575-.0312913-.0701575-.0701496v-.431421c0-.0387402.0313031-.0701535.0701575-.0701535.0387362-.00000394.0701575.0314252.0701575.0701575l.00001181.431409c0 .0388583-.031437.0701654-.0701693.0701575z" />
      <path id="_428299568" d="m2.12309 1.72309c-.0387244 0-.0701575-.0312913-.0701575-.0701496l.00000787-.431421c0-.0387402.0314134-.0701535.0701496-.0701535.0387323-.00000394.0701575.0314252.0701575.0701575v.431409c0 .0388583-.0314252.0701654-.0701575.0701575z" />
      <path id="_428299448" d="m2.64269 1.72309c-.0387244 0-.0701575-.0312913-.0701575-.0701496v-.431421c0-.0387402.0314213-.0701535.0701575-.0701535.0387362-.00000394.0701575.0314252.0701575.0701575v.431409c0 .0388583-.0314252.0701654-.0701575.0701575z" />
      <path id="_428299376" d="m3.1623 1.72309c-.0387244 0-.0701575-.0312913-.0701575-.0701496v-.431421c0-.0387402.0314252-.0701535.0701575-.0701535.0387362-.00000394.0701575.0314252.0701575.0701575v.431409c0 .0388583-.0314252.0701654-.0701575.0701575z" />
      <path id="_428298584" d="m3.68191 1.72309c-.0387323 0-.0701654-.0312913-.0701654-.0701496l.00000787-.431421c0-.0387402.0314134-.0701535.0701496-.0701535.0387323-.00000394.0701575.0314252.0701575.0701575l.00000787.431409c0 .0388583-.0314331.0701654-.0701575.0701575z" />
      <path id="_428298824" d="m4.20163 1.72309c-.0387244 0-.0701575-.0312913-.0701575-.0701496v-.361264h-3.49727v.361256c0 .0388583-.031437.0701654-.0701654.0701654-.0387283-.00000787-.0701575-.0312992-.0701575-.0701575l.00000787-.372598c0-.0711299.0578465-.128976.129102-.128976l3.51981-.00000394c.0711299 0 .128984.0578622.128984.128988v.372583c0 .0388583-.0314252.0701654-.0701575.0701575z" />
      <path id="_428298440" d="m.978768 5.15509h-.46515c-.0903819 0-.163957-.0735669-.163957-.163941l.00000394-2.59717c0-.0754055.0613858-.136787.13678-.136787l3.85952-.00000787c.0387244 0 .0701457.031315.0701457.0701654.00001181.0387283-.0314252.0701575-.0701575.0701575l-3.85598-.00000787v2.59363c0 .0130315.0105945.0236378.023626.0236378h.465161c.0388622 0 .0701575.0314252.0701575.0701575 0 .0387205-.0313031.0701575-.0701575.0701575z" />
    </g>
  </g>
</svg>