<?xml version="1.0" encoding="iso-8859-1"?>
<!-- Generator: Adobe Illustrator 19.0.0, SVG Export Plug-In . SVG Version: 6.00 Build 0)  -->
<svg version="1.1" id="Capa_1" xmlns="http://www.w3.org/2000/svg" xmlns:xlink="http://www.w3.org/1999/xlink" x="0px" y="0px" viewBox="0 0 512.01 512.01" style="fill:#b91c1c;" xml:space="preserve">
  <g>
    <g>
      <g>
        <path d="M507.734,364.807l-42.667-32c-2.354-1.771-5.396-2.51-8.188-1.979c-2.896,0.49-5.458,2.156-7.083,4.594l-15.081,22.62				l-32.07-24.06c7.065-17.536,12.65-36.693,16.613-57.255c17.5-15.638,28.746-38.126,28.746-63.388				c0-23.746-9.785-45.217-25.491-60.702C405.488,62.592,337.579,0.005,256.005,0.005S106.522,62.592,89.496,152.637				c-15.706,15.484-25.491,36.956-25.491,60.702c0,25.262,11.246,47.75,28.746,63.388c3.962,20.565,9.543,39.723,16.608,57.259				l-32.065,24.056l-15.081-22.62c-1.625-2.438-4.188-4.104-7.083-4.594c-2.813-0.521-5.854,0.208-8.188,1.979l-42.667,32				c-4.542,3.396-5.625,9.74-2.479,14.448l85.333,128c1.625,2.438,4.188,4.104,7.083,4.594c0.583,0.104,1.188,0.156,1.792,0.156				c2.292,0,4.542-0.74,6.396-2.135l42.667-32c4.542-3.396,5.625-9.74,2.479-14.448l-15.738-23.608l19.534-14.651				c9.336,49.352,52.639,86.842,104.663,86.842s95.327-37.491,104.663-86.842l19.534,14.651l-15.738,23.608				c-3.146,4.708-2.063,11.052,2.479,14.448l42.667,32c1.854,1.396,4.104,2.135,6.396,2.135c0.604,0,1.208-0.052,1.792-0.156				c2.896-0.49,5.458-2.156,7.083-4.594l85.333-128C513.359,374.547,512.276,368.203,507.734,364.807z M426.672,213.338				c0,35.292-28.708,64-64,64s-64-28.708-64-64c0-35.292,28.708-64,64-64S426.672,178.047,426.672,213.338z M85.338,213.338				c0-35.292,28.708-64,64-64c35.292,0,64,28.708,64,64c0,35.292-28.708,64-64,64C114.047,277.338,85.338,248.63,85.338,213.338z				 M98.63,486.036L25.151,375.818l25.563-19.177l73.479,110.219L98.63,486.036z M119.961,422.043l-30.82-46.23l29.266-21.954				c8.839,17.422,19.315,32.824,31.335,45.85L119.961,422.043z M256.005,490.672c-47.063,0-85.333-38.281-85.333-85.333				c0-47.052,38.271-85.333,85.333-85.333s85.333,38.281,85.333,85.333C341.339,452.391,303.068,490.672,256.005,490.672z				 M357.025,372.698c-13.884-42.792-53.664-74.026-101.02-74.026c-47.353,0-87.129,31.229-101.017,74.016				c-16.145-21.493-28.608-48.608-36.784-80.094c9.671,3.814,20.122,6.078,31.134,6.078c47.063,0,85.333-38.281,85.333-85.333				c0-47.052-38.271-85.333-85.333-85.333c-11.895,0-23.211,2.475-33.506,6.889c20.934-67.953,75.699-113.556,140.173-113.556				s119.24,45.603,140.173,113.556c-10.296-4.414-21.612-6.889-33.507-6.889c-47.063,0-85.333,38.281-85.333,85.333				c0,47.052,38.271,85.333,85.333,85.333c11.01,0,21.461-2.264,31.132-6.077C385.626,324.074,373.161,351.191,357.025,372.698z				 M362.275,399.712c12.014-13.033,22.487-28.436,31.324-45.858l29.271,21.958l-30.82,46.23L362.275,399.712z M413.38,486.036				l-25.563-19.177l73.479-110.219l25.563,19.177L413.38,486.036z" />
        <path d="M231.547,365.797c-4.167-4.167-10.917-4.167-15.083,0c-4.167,4.167-4.167,10.917,0,15.083l10.667,10.667				c2.083,2.083,4.813,3.125,7.542,3.125c2.729,0,5.458-1.042,7.542-3.125c4.167-4.167,4.167-10.917,0-15.083L231.547,365.797z" />
        <path d="M280.463,365.797l-10.667,10.667c-4.167,4.167-4.167,10.917,0,15.083c2.083,2.083,4.813,3.125,7.542,3.125				c2.729,0,5.458-1.042,7.542-3.125l10.667-10.667c4.167-4.167,4.167-10.917,0-15.083C291.38,361.63,284.63,361.63,280.463,365.797				z" />
        <path d="M284.88,419.13c-4.167-4.167-10.917-4.167-15.083,0c-4.167,4.167-4.167,10.917,0,15.083l10.667,10.667				c2.083,2.083,4.813,3.125,7.542,3.125s5.458-1.042,7.542-3.125c4.167-4.167,4.167-10.917,0-15.083L284.88,419.13z" />
        <path d="M227.13,419.13l-10.667,10.667c-4.167,4.167-4.167,10.917,0,15.083c2.083,2.083,4.813,3.125,7.542,3.125				s5.458-1.042,7.542-3.125l10.667-10.667c4.167-4.167,4.167-10.917,0-15.083C238.047,414.964,231.297,414.964,227.13,419.13z" />
      </g>
    </g>
  </g>
</svg>