<svg id="Capa_1" style="fill:#fff" enable-background="new 0 0 512 512" height="512" viewBox="0 0 512 512" width="512" xmlns="http://www.w3.org/2000/svg">
  <g>
    <path d="m435.279 422.578v-22.861c0-23.346-12.34-45.907-31.285-58.198l.804-2.101c2.833-7.399-.861-15.677-8.261-18.51l-46.699-17.878c-7.377-2.827-15.684.88-18.51 8.261l-.238.622-30.415-11.779-.015-17.628c15.894-11.72 26.923-29.652 29.502-50.182 7.705-.761 14.971-3.876 20.671-9.001 7.046-6.337 11.087-15.245 11.087-24.441 0-9.316-3.724-18.148-10.081-24.593 1.138-1.638 2.089-3.336 2.829-5.099 4.06-9.678 2.022-20.338-6.045-31.715v-8.099c22.363-10.36 35.334-23.176 38.581-38.137 2.9-13.369-2.191-27.314-15.136-41.447-.087-.094-.175-.186-.266-.275-5.456-5.896-12.257-11.712-20.217-17.291-3.395-2.379-8.07-1.554-10.447 1.837-2.377 3.392-1.555 8.07 1.837 10.447 7.194 5.042 13.258 10.231 18.023 15.421.075.083.153.163.232.242 9.3 10.237 13.105 19.619 11.312 27.885-1.93 8.891-10.371 17.407-24.6 24.926-.025-.073-1.456-4.015-4.577-6.219-2.794-2.028-7.155-3.088-11.441-1.798h-.001c-10.902 3.559-35.267 9.532-75.949 9.532s-65.047-5.972-75.949-9.532c-3.871-1.265-8.149-.592-11.442 1.797-3.709 2.659-4.553 6.145-4.577 6.216-13.353-7.058-25.683-17.125-24.959-30.059.61-10.918 10.055-23.713 26.594-36.027 14.963-11.14 34.735-21.028 52.893-26.45 27.566-8.232 56.836-7.095 84.648 3.288.058.023.114.045.172.066 3.216 1.204 6.624 2.605 10.129 4.167 3.781 1.685 8.218-.015 9.903-3.799 1.686-3.783-.015-8.218-3.799-9.904-3.718-1.656-7.351-3.152-10.798-4.447-.058-.023-.115-.045-.174-.067-30.953-11.6-63.586-12.872-94.374-3.678-36.283 10.836-88.246 41.583-90.172 76.014-1.054 18.86 12.155 34.751 39.258 47.287v8.104c-8.067 11.376-10.105 22.036-6.044 31.715.825 1.966 1.907 3.851 3.226 5.662-6.51 6.469-10.43 15.249-10.43 24.119 0 9.196 4.047 18.097 11.105 24.422 5.697 5.105 12.953 8.2 20.647 8.942 2.494 20.031 13.051 38.122 29.453 50.09l.001 17.418-30.444 11.891-.17-.444c-2.827-7.38-11.126-11.087-18.51-8.26l-46.699 17.878c-7.398 2.832-11.095 11.111-8.261 18.508l.836 2.185c-15.538 10.278-31.317 30.253-31.317 58.115v22.861c-4.808 2.219-8.161 7.074-8.161 12.708v22.669c0 5.634 3.352 10.489 8.161 12.708v23.229c0 9.984 8.124 18.109 18.109 18.109h322.341c9.985 0 18.108-8.124 18.108-18.108v-23.229c4.808-2.219 8.161-7.074 8.161-12.708v-22.669c0-5.635-3.352-10.489-8.16-12.708zm-90.179-105.301 45.451 17.399c-5.131 13.405-.466 1.217-5.481 14.321l-45.451-17.399c1.82-4.756 3.357-8.772 5.481-14.321zm-27.813 5.375-27.965 32.08c-16.284-14.197-15.399-13.425-17.84-15.553 8.129-9.325 5.93-6.804 22.357-25.646.711.336-.645-.211 23.448 9.119zm-58.762 8.708h-5.098c-.691-1.012.946.938-27.142-31.284v-9.205c17.853 7.464 39.799 8.498 59.383.197l.007 8.999c-27.901 32.006-26.505 30.332-27.15 31.293zm8.527 23.858-3.759 9.894h-14.639l-3.756-9.892c1.866-1.626.726-.632 5.681-4.952 1.373-1.197 2.542-2.725 3.223-3.907h4.348c.692 1.202 1.853 2.713 3.222 3.906zm79.867-156.339c0 5.021-2.172 9.74-6.117 13.287-2.799 2.517-6.279 4.202-10.04 4.932v-27.054c3.787-1.688 7.166-3.511 10.129-5.467 3.756 3.703 6.028 8.934 6.028 14.302zm-168.591-78.726c.403.121.818.243 1.245.366 13.242 3.832 38.158 8.982 76.402 8.982 38.247 0 63.162-5.149 76.403-8.982.427-.124.842-.246 1.245-.366v14.924c3.457.814-76.686 19.813-155.296.001v-14.925zm2.908 96.964c-3.761-.715-7.242-2.388-10.041-4.897-3.943-3.534-6.115-8.24-6.115-13.251 0-5.149 2.476-10.302 6.549-14.027.026.017.055.033.081.05 2.82 1.807 5.99 3.501 9.526 5.075zm-4.852-47.212c-.001-.001-.002-.002-.004-.003-2.531-2.076-4.317-4.257-5.266-6.52-1.618-3.858-.812-8.577 2.392-14.069 2.179.797 4.412 1.573 6.702 2.323 9.324 3.054 18.222 5.526 26.667 6.812 41.18 6.269 82.365 2.923 98.2-.001 7.464-1.309 15.57-3.2 24.123-5.922 3.216-1.019 6.299-2.097 9.247-3.21 3.204 5.492 4.01 10.211 2.392 14.069-.885 2.11-17.664 25.405-84.862 25.405-60.503 0-78.696-18.15-79.591-18.884zm19.892 54.769c0-.016-.039-29.241-.039-29.241 57.865 15.961 111.925 2.185 119.526-.012 0 0-.04 29.259-.04 29.273-.864 31.782-27.017 57.187-58.762 57.187-37.066-.001-59.859-28.548-60.685-57.207zm21.673 88.67c20.064 23.015 13.595 15.595 22.522 25.835l-17.84 15.553-28.105-32.24zm-51.05 3.933 5.481 14.321-45.45 17.4c-1.194-3.122-4.526-11.826-5.481-14.321zm-83.339 119.009h46.576v20.669h-46.576zm46.577 60.713h-35.308c-1.714 0-3.107-1.394-3.107-3.107v-21.936h38.415zm92.871 0h-77.871v-97.669c0-4.142-3.357-7.501-7.501-7.501-4.143 0-7.501 3.358-7.501 7.501v21.955h-38.413v-21.568c0-21.1 11.711-35.797 21.907-43.641 3.219 6.721 11.122 9.819 18.041 7.172l46.699-17.878c3.713-1.422 6.929-4.469 8.471-8.865l25.157 28.859c4.596 5.274 13.427 6.836 20.846.368l2.992 7.88zm151.354-105.17c-4.143 0-7.501 3.358-7.501 7.501v97.669h-77.923l-3.157-30.38c-.43-4.12-4.108-7.117-8.236-6.686-4.12.428-7.113 4.115-6.686 8.236l2.996 28.828h-35.765l12.149-116.885h11.465l5.516 53.053c.429 4.12 4.097 7.11 8.236 6.686 4.12-.429 7.113-4.116 6.686-8.236l-6.031-58.007 2.994-7.882c7.335 6.393 16.176 4.994 20.848-.364l25.193-28.899c1.175 3.688 4.302 7.304 8.485 8.905l46.699 17.878c6.971 2.67 14.921-.495 18.107-7.311 13.155 9.889 21.842 26.823 21.842 43.781v21.568h-38.415v-21.954c-.002-4.143-3.359-7.501-7.502-7.501zm45.917 102.062c0 1.713-1.394 3.107-3.107 3.107h-35.307v-25.044h38.414zm8.16-36.937h-46.575v-20.669h46.575z" />
    <path d="m309.409 427.618h35.224c4.143 0 7.501-3.358 7.501-7.501s-3.357-7.501-7.501-7.501h-35.224c-4.143 0-7.501 3.358-7.501 7.501s3.358 7.501 7.501 7.501z" />
    <path d="m167.316 427.618h35.224c4.143 0 7.501-3.358 7.501-7.501s-3.357-7.501-7.501-7.501h-35.224c-4.143 0-7.501 3.358-7.501 7.501s3.358 7.501 7.501 7.501z" />
    <path d="m291.885 66.389c3.078-3.001 4.165-7.406 2.837-11.495-1.329-4.088-4.797-7.013-9.053-7.631l-13.554-1.969-6.061-12.281c-1.902-3.856-5.755-6.252-10.055-6.252s-8.153 2.395-10.056 6.251l-6.062 12.282-13.553 1.969c-4.255.618-7.724 3.542-9.053 7.631-1.328 4.089-.241 8.494 2.837 11.496l9.809 9.56-2.314 13.499c-.728 4.237.981 8.44 4.46 10.968 1.965 1.428 4.265 2.154 6.581 2.154 1.781 0 3.573-.43 5.228-1.3l12.124-6.374 12.124 6.375c3.803 2 8.329 1.674 11.808-.854 3.478-2.526 5.188-6.729 4.461-10.967l-2.315-13.5zm-21.706.209c-2.642 2.575-3.847 6.285-3.224 9.925l1.354 7.897-7.093-3.729c-1.633-.858-3.425-1.288-5.217-1.288s-3.584.429-5.219 1.288l-7.092 3.729 1.354-7.895c.626-3.638-.579-7.35-3.224-9.928l-5.736-5.592 7.929-1.152c3.652-.53 6.81-2.823 8.444-6.134l3.545-7.184 3.546 7.186c1.634 3.309 4.789 5.602 8.442 6.133l7.929 1.152z" />
  </g>
</svg>