<svg id="Layer_1" style="fill:#fff" enable-background="new 0 0 70 70" height="512" viewBox="0 0 70 70" width="512" xmlns="http://www.w3.org/2000/svg">
  <g id="_x36_6">
    <path d="m29.644022 43.6162338c.3300171.3353271.7990723.5704346 1.2641602.4992676.7241821-.1107788 1.1378155-.8634644 1.4520245-1.5253296 3.4417114-7.2503662 8.0671997-13.9372578 13.6375122-19.7152729.328064-.340271.1741943-1.0106201-.1827393-1.3204346s-.8908081-.34375-1.3419189-.2025757c-3.180626.9959374-11.2594377 11.7120267-12.9340192 13.6724873-1.7984619-1.1415405-5.2401733-1.4986572-7.0567627-2.611145-.3330688-.2039795-.6723633-.4105835-1.0504761-.5082417-.3780518-.0975952-.8076782-.0717163-1.1213989.1607685-.3137817.2325439-.5267334.8682861-.2505493 1.1443481 5.2223797 5.2201501 6.7199173 9.5281335 7.5841675 10.406128z" />
    <path d="m33.2212296 60.5630112c.1481171.0502853.3054085.0534782.4511719.0112305 5.5869141-1.6069336 10.8369141-5.6625977 14.4042969-11.1269531 6.6138992-10.1299362 7.0238762-23.3149986 5.7519531-35.3442383-.0371094-.34375-.3037109-.6186523-.6464844-.6645508-21.6088829-2.8712006-20.2327957-2.7259674-20.4335938-2.6943359-4.0932217.6221972-18.942379 2.8983717-19.3095684 2.9331055-.3955078 0-.7226563.3066406-.7480469.7006836-.3984375 6.0327148-.8105469 12.2709961-.1425781 18.427248 1.449996 13.3453654 7.8258171 23.3393954 20.6728497 27.7578105zm-19.0751935-45.4638691 18.7226543-2.855957 19.5283203 2.6040039c1.1644974 11.5354404.7005157 24.1660328-5.5761719 33.7797852-3.3242188 5.0932617-8.1748047 8.8862305-13.3359375 10.4389648-12.0969753-4.2621384-18.0614109-13.6701508-19.444334-26.4228516-.6318358-5.8164063-.274414-11.7695313.1054688-17.5439453z" />
    <path d="m58.5288467 31.3735561c.7939453-6.7431641.7490234-13.8037109-.1416016-22.2207031-.0371094-.3442383-.3037109-.6186523-.6464844-.6645508-26.5081825-3.524837-24.8923874-3.3474851-25.0927734-3.3159175-25.6410646 3.9046626-24.0095758 3.6297489-24.1807231 3.7391963.0021973-.0478516.003418-.0953979.0056152-.1432495-.078186.081604-.6238403.3146973-.6917725.4069214-.2017789.274066-.5470276.4768906-.7948608.7233887-.5681844.5653963-.5269408 1.1583271-.7136841 2.9025269-.4327288 4.052803-.7635131 8.1113663-.7821655 12.203186-.0830927 19.2359524 7.6368494 36.5285416 26.175293 42.104187 3.6349659 1.0930862 6.9631443-1.5170212 10.1103497-3.6478271 3.7380981-2.5308228 7.003418-5.7570801 9.5820313-9.4622192 4.6051634-6.6174985 6.2022628-14.4015065 7.1707762-22.6249391zm-48.9580059-21.1640625 23.1972637-3.5380855 24.1884766 3.2260737c1.4525528 14.2623463.9016991 29.8987255-6.875 41.8095703-4.1240234 6.3178711-10.1484375 11.019043-16.5576172 12.9311523-14.9807262-5.252817-22.3776874-16.8916071-24.0917949-32.673828-.7841797-7.2167968-.3330079-14.5981445.1386718-21.7548828z" />
    <path d="m61.9692764 10.6342983c.4082031-.0698242.6826172-.4570313.6132813-.8652344-.4501953-2.6416011-2.2148438-5.0361323-4.6044922-6.2495117-.3710938-.1870117-.8203125-.0400391-1.0087891.3295898-.1875.3691409-.0400391.820801.3291016 1.008301 1.9755859 1.0024414 3.4335938 2.980957 3.8056641 5.1635737.0697441.4081129.4570617.6828569.8652343.6132816z" />
    <path d="m64.4995499 7.2187715c-.3232422-1.9033203-1.5947266-3.6284182-3.3173828-4.5029297-.3730469-.1889651-.8212891-.0390628-1.0087891.3295896-.1875.3691406-.0400391.8208008.3291016 1.008301 1.3076172.6630859 2.2724609 1.9726563 2.5185547 3.4169922.0702744.4112005.4592819.6824775.8652344.6132808.408203-.069336.6826171-.4565425.6132812-.8652339z" />
  </g>
</svg>